<svg width="167" height="39" viewBox="0 0 167 39" fill="none" xmlns="http://www.w3.org/2000/svg">
<path fill-rule="evenodd" clip-rule="evenodd" d="M51 5V38.75L28.5 21.875L6 5L51 5Z" fill="#46BA71"/>
<path fill-rule="evenodd" clip-rule="evenodd" d="M0 33.75L0 0L22.5 16.875L45 33.75L0 33.75Z" fill="#2E4FD7"/>
<path d="M74.672 9.2H59.672V11.408C60.584 10.88 61.688 10.304 63.704 10.304H65.096V22.208C65.096 23.456 64.904 24.464 64.424 26H69.92C69.416 24.416 69.224 23.408 69.224 22.208V10.304H70.64C72.656 10.304 73.76 10.88 74.672 11.408V9.2ZM89.1838 13.64C89.7118 14.816 89.3038 16.136 88.9198 17.312L87.5038 21.44L85.7278 16.712C85.3438 15.704 85.1758 14.552 85.6558 13.64H80.4478L82.0078 17.336L80.6158 21.44L78.8398 16.712C78.4558 15.656 78.2638 14.552 78.7438 13.64H73.5598L78.7198 26H79.7518L82.6078 18.776L85.6318 26H86.6398L91.5118 13.64H89.1838ZM104.191 19.256C104.191 16.088 102.295 13.304 98.3591 13.304C94.3991 13.304 91.9511 16.112 91.9511 19.808C91.9511 23.48 94.4231 26.312 98.7191 26.312C101.407 26.312 103.303 25.256 104.143 23.864L101.959 22.088C101.167 23.984 100.351 25.184 98.8871 25.184C96.9671 25.184 96.0551 23.12 96.0551 19.808H104.191V19.256ZM96.0791 18.704C96.2231 15.8 96.9671 14.408 98.3591 14.408C99.8951 14.408 100.615 16.16 100.615 18.704H96.0791ZM112.083 13.304C109.707 13.304 107.331 14.216 106.347 16.616L109.203 17.504C109.635 15.44 110.259 14.408 111.675 14.408C113.043 14.408 113.859 15.272 113.859 17.096V18.56L111.603 18.968C108.579 19.52 106.059 20.6 106.059 23.072C106.059 25.112 107.835 26.312 109.947 26.312C112.035 26.312 113.547 25.136 114.291 23.168L115.923 26H117.843V18.176C117.843 14.648 114.963 13.304 112.083 13.304ZM111.411 24.872C110.547 24.872 109.851 24.152 109.851 22.952C109.851 21.44 110.979 20.144 112.635 19.664L113.859 19.304V19.952C113.859 23.24 112.755 24.872 111.411 24.872ZM124.711 22.424V8.24H120.031C120.439 9.44 120.727 10.472 120.727 11.816V22.424C120.727 23.528 120.559 24.488 120.031 26H125.407C124.999 24.8 124.711 23.768 124.711 22.424ZM128.143 18.128L132.439 13.616H129.895C129.991 14.144 129.943 14.84 129.055 15.752L125.023 19.856L128.023 23.624C128.815 24.656 128.767 25.352 128.551 26H134.119L128.143 18.128ZM140.98 10.688C142.108 10.688 142.972 10.928 143.788 11.24L144.604 8.6C143.884 8.24 142.756 7.928 141.46 7.928C138.1 7.928 136.396 10.184 136.396 12.968V13.616H134.524V14.72H136.396V22.424C136.396 23.528 136.204 24.488 135.7 26H141.076C140.668 24.8 140.38 23.768 140.38 22.424V14.72H143.26V13.616H139.636C138.124 13.616 137.788 12.92 137.788 12.392C137.788 11.312 139.324 10.688 140.98 10.688ZM152.869 13.616C153.253 14.816 153.565 15.848 153.565 17.192V21.152C153.565 22.76 152.869 24.872 151.213 24.872C150.133 24.872 149.293 23.936 149.293 22.016V13.616H144.613C144.997 14.816 145.309 15.848 145.309 17.192V21.752C145.309 24.776 147.133 26.312 149.605 26.312C152.005 26.312 153.397 24.896 153.925 23.048L155.653 26H157.549V13.616H152.869ZM160.852 11.816V22.424C160.852 23.528 160.684 24.488 160.156 26H165.532C165.124 24.8 164.836 23.768 164.836 22.424V8.24H160.156C160.564 9.44 160.852 10.472 160.852 11.816Z" fill="#1A1A1A"/>
</svg>
